<?xml version="1.0" encoding="UTF-8" standalone="no"?>
<!-- Created with Inkscape (http://www.inkscape.org/) -->

<svg
   xmlns:dc="http://purl.org/dc/elements/1.1/"
   xmlns:cc="http://creativecommons.org/ns#"
   xmlns:rdf="http://www.w3.org/1999/02/22-rdf-syntax-ns#"
   xmlns:svg="http://www.w3.org/2000/svg"
   xmlns="http://www.w3.org/2000/svg"
   xmlns:sodipodi="http://sodipodi.sourceforge.net/DTD/sodipodi-0.dtd"
   xmlns:inkscape="http://www.inkscape.org/namespaces/inkscape"
   id="svg2985"
   version="1.1"
   inkscape:version="0.48.2 r9819"
   width="102"
   height="102"
   sodipodi:docname="logo.svg">
  <metadata
     id="metadata2991">
    <rdf:RDF>
      <cc:Work
         rdf:about="">
        <dc:format>image/svg+xml</dc:format>
        <dc:type
           rdf:resource="http://purl.org/dc/dcmitype/StillImage" />
        <dc:title></dc:title>
      </cc:Work>
    </rdf:RDF>
  </metadata>
  <defs
     id="defs2989" />
  <sodipodi:namedview
     pagecolor="#ffffff"
     bordercolor="#666666"
     borderopacity="1"
     objecttolerance="10"
     gridtolerance="10"
     guidetolerance="10"
     inkscape:pageopacity="0"
     inkscape:pageshadow="2"
     inkscape:window-width="1280"
     inkscape:window-height="752"
     id="namedview2987"
     showgrid="false"
     inkscape:zoom="3.571707"
     inkscape:cx="107.59114"
     inkscape:cy="36.315415"
     inkscape:window-x="0"
     inkscape:window-y="0"
     inkscape:window-maximized="1"
     inkscape:current-layer="svg2985"
     showguides="true"
     inkscape:guide-bbox="true">
    <sodipodi:guide
       orientation="1,0"
       position="50.12712,50.402543"
       id="guide2990" />
  </sodipodi:namedview>
  <path
     style="fill:#000000"
     d="m 42.480761,94.762234 c -1.2864,-1.53523 -3.0139,-3.81448 -3.8389,-5.06501 -1.84151,-2.79134 -3.967,-2.16241 -6.3552,1.88049 -2.05325,3.47587 -5.15624,5.37729 -7.38172,4.5233 -1.32416,-0.50813 -1.14921,-1.05688 1.07814,-3.38173 3.24592,-3.38801 3.24925,-3.48435 0.22506,-6.50855 -3.33808,-3.33807 -4.21303,-8.65708 -2.11406,-12.85175 1.60608,-3.20966 1.5884,-3.34889 -0.61012,-4.80543 -1.24528,-0.825 -6.96146,-4.82219 -12.70264,-8.882641 L 0.34281115,52.288273 1.0203312,34.929753 c 0.37264,-9.54719 0.93721,-18.03526 1.2546,-18.86238 0.71767,-1.8702 6.82216,-1.15173 13.0986898,1.54165 3.27488,1.40531 4.73318,2.848 6.44927,6.38023 1.21963,2.51036 2.46533,4.56393 2.76824,4.56349 0.3029,-4.5e-4 2.78837,-0.85063 5.52326,-1.88929 4.06809,-1.54498 5.11913,-2.45426 5.77859,-4.99918 0.55878,-2.15643 1.41085,-3.11072 2.77747,-3.11072 1.55502,0 1.97396,0.68645 1.98347,3.25 0.011,2.97318 0.50078,3.47882 5.75,5.93642 3.15587,1.47754 5.88075,2.28661 6.0553,1.79794 0.8266,-2.31423 4.9638,-7.50875 7.44341,-9.34571 1.91726,-1.42035 4.77831,-2.1737 9.36408,-2.4657 l 6.60331,-0.42047 -0.37605,18.10795 c -0.34195,16.4659 -0.55633,18.28536 -2.36408,20.06426 -1.83909,1.80974 -21.83504,14.670661 -23.90375,15.374311 -0.53926,0.18343 -0.49293,1.52428 0.11271,3.26163 1.55585,4.46309 0.4493,9.05904 -2.99092,12.42248 l -3.06956,3.00107 2.30826,2.45703 c 1.33162,1.41745 2.05646,3.11321 1.71313,4.00791 -0.86468,2.253321 -2.1739,1.916321 -4.819,-1.24044 z m -4.51055,-14.45868 c 0.32365,-2.3375 0.71967,-5.15 0.88005,-6.25 0.23011,-1.57826 -0.35387,-2.06311 -2.76938,-2.29926 l -3.06098,-0.29926 1.56098,6.54407 c 0.85854,3.59924 1.83996,6.54641 2.18093,6.54926 0.34097,0.003 0.88475,-1.90731 1.2084,-4.24481 z m 7.2214,-2.40781 c -0.68414,-2.72583 -0.76965,-2.76194 -2.13124,-0.89985 -0.78018,1.06696 -1.41851,3.30391 -1.41851,4.97101 l 0,3.03109 2.13124,-2.13124 c 1.6426,-1.64259 1.96783,-2.78234 1.41851,-4.97101 z m -13.54975,3.2396 c 0,-5.06378 -2.27902,-7.42875 -3.48801,-3.61956 -0.6747,2.12579 0.96012,6.03777 2.5232,6.03777 0.53065,0 0.96481,-1.0882 0.96481,-2.41821 z m 10.82052,-19.496781 c 0.5589,-1.60324 0.75292,-3.17824 0.43116,-3.5 -0.32176,-0.32175 -3.46534,-0.58501 -6.98573,-0.58501 -6.1755,0 -6.37645,0.0792 -5.71095,2.25 1.17187,3.822551 2.53271,4.750001 6.96962,4.750001 3.82845,0 4.38688,-0.30737 5.2959,-2.914991 z m 14.47914,-3.70306 c 1.76019,-0.88993 4.59707,-2.66267 6.30418,-3.93941 3.05095,-2.2818 3.11576,-2.50974 3.80331,-13.37548 1.20787,-19.0886 -1.06485,-18.22963 -9.75518,3.68693 -3.10858,7.83969 -5.65197,14.47719 -5.65197,14.75 0,0.93857 2.1058,0.49274 5.29966,-1.12204 z m -35.30333,-1.13195 c -0.01,-1.94999 -9.10225,-30.75593 -9.98775,-31.64143 -2.10314,-2.10313 -2.9285698,1.2026 -3.2149098,12.87524 l -0.29366,11.97114 5.4999998,3.74202 c 5.29351,3.60153 8.00407,4.63644 7.99632,3.05303 z m 26.00367,-8.25 0,-3 -10.5,0 c -10.44873,0 -10.5,0.0118 -10.5,2.42668 0,2.99987 1.09692,3.30946 12.25,3.45732 l 8.75,0.116 0,-3 z m -2,-9.92742 c 0,-1.84971 -5.34479,-5.07258 -8.41235,-5.07258 -3.1481,0 -7.58765,2.33827 -7.58765,3.99634 0,0.48561 1.6875,1.05945 3.75,1.27519 7.50498,0.78505 12.25,0.70798 12.25,-0.19895 z m 34.337628,-17.51004 c 0.30338,-0.7906 1.03901,-3.24755 1.63473,-5.45989 1.13825,-4.22713 1.81833,-4.572 10.52764,-5.33859 1.88264,-0.16571 3,-0.8227404 3,-1.7640604 0,-1.1555496 -1.29165,-1.4999996 -5.62487,-1.4999996 -4.09021,0 -5.49339,-0.34104 -5.14301,-1.25 0.32932,-0.8543 2.99039,-1.25 8.40625,-1.25 8.974541,0 9.789141,0.6765 8.261001,6.86047 -0.87781,3.55224 -1.048266,3.66159 -7.107541,4.55933 -8.78565,1.30167 -9.28959,3.5802 -0.79183,3.5802 5.31114,0 6.33654,0.2624 5.86163,1.5 -0.45576,1.18768 -2.55365,1.5 -10.07561,1.5 -7.84988,0 -9.40418,-0.24968 -8.94839,-1.43746 z"
     id="path3069"
     inkscape:connector-curvature="0" />
</svg>
